<mxfile host="app.diagrams.net" modified="2024-07-12T22:58:20.783Z" agent="Mozilla/5.0 (Windows NT 10.0; Win64; x64) AppleWebKit/537.36 (KHTML, like Gecko) Chrome/126.0.0.0 Safari/537.36" version="24.6.4" etag="Yer6D6DUalurxFCFQaXf" type="github">
  <diagram name="Page-1" id="jU15GpkAa8-Q0C0P1FHa">
    <mxGraphModel>
      <root>
        <mxCell id="0" />
        <mxCell id="1" parent="0" />
      </root>
    </mxGraphModel>
  </diagram>
</mxfile>
